<svg preserveAspectRatio="none" width="100%" height="100%" overflow="visible" style="display: block;" viewBox="0 0 14.4 13.23" fill="none" xmlns="http://www.w3.org/2000/svg">
<g id="Group 40359">
<path id="Vector" d="M4.29983 8.19965C6.45364 8.19965 8.19966 6.45364 8.19966 4.29982C8.19966 2.14601 6.45364 0.4 4.29983 0.4C2.14601 0.4 0.4 2.14601 0.4 4.29982C0.4 6.45364 2.14601 8.19965 4.29983 8.19965Z" stroke="var(--stroke-0, #FF9F18)" stroke-width="0.8" stroke-linecap="round" stroke-linejoin="round"/>
<path id="Vector_2" d="M9.36965 4.27911C9.83476 4.28137 10.3073 4.36746 10.7666 4.54652C12.7733 5.32891 13.7657 7.58991 12.9834 9.59659C12.201 11.6033 9.93996 12.5958 7.93328 11.8134C6.72654 11.3429 5.88658 10.3377 5.5788 9.1746" stroke="var(--stroke-0, #FF9F18)" stroke-width="0.8" stroke-linecap="round" stroke-linejoin="round"/>
<g id="Group 40357">
<path id="Vector_3" d="M4.34924 2.769L4.34924 5.88886" stroke="var(--stroke-0, #FF9F18)" stroke-width="0.8" stroke-linecap="round" stroke-linejoin="round"/>
<path id="Vector_4" d="M4.18952 2.7399L3.52 3.12988" stroke="var(--stroke-0, #FF9F18)" stroke-width="0.8" stroke-linecap="round" stroke-linejoin="round"/>
</g>
<g id="Group 40358">
<path id="Vector_5" d="M10.1058 6.9681L8.97247 9.87483" stroke="var(--stroke-0, #FF9F18)" stroke-width="0.8" stroke-linecap="round" stroke-linejoin="round"/>
<path id="Vector_6" d="M9.96749 6.88294L9.20204 7.00308" stroke="var(--stroke-0, #FF9F18)" stroke-width="0.8" stroke-linecap="round" stroke-linejoin="round"/>
</g>
</g>
</svg>
